<?xml version="1.0" encoding="UTF-8" standalone="no"?>
<!-- Created with Inkscape (http://www.inkscape.org/) -->

<svg
   width="54.774487mm"
   height="46.891796mm"
   viewBox="0 0 54.774487 46.891796"
   version="1.1"
   id="svg1"
   xml:space="preserve"
   xmlns="http://www.w3.org/2000/svg"
   xmlns:svg="http://www.w3.org/2000/svg"><defs
     id="defs1" /><g
     id="layer1"
     transform="translate(-0.64823097,-0.57867706)"><path
       style="fill:#ffffff"
       d="m 30.46054,47.291565 -0.17898,-0.17897 v -11.28007 -11.28007 l 0.3175,-0.3175 0.3175,-0.3175 h 1.1033 1.1033 l 0.14048,1.24633 0.14048,1.24633 0.5847,0.47346 0.5847,0.47346 h 0.64417 0.64418 l 0.64943,-0.64943 0.64943,-0.64943 v -1.07036 -1.07036 h 5.68854 5.68854 v 1.07036 1.07036 l 0.64944,0.64943 0.64943,0.64943 h 0.68551 0.68551 l 0.64943,-0.64943 0.64943,-0.64943 v -1.07036 -1.07036 h 1.15823 1.15823 l 0.29985,0.36129 0.29985,0.3613 -0.069,11.34651 -0.069,11.34652 -12.32259,0.0687 -12.32259,0.0687 z m 23.04652,-1.87672 0.19013,-0.46302 v -7.54062 -7.54063 l -0.19013,-0.46302 -0.19014,-0.46302 H 42.86689 32.41685 l -0.27389,0.51177 -0.2739,0.51178 v 7.63739 7.63739 l 0.3175,0.3175 0.3175,0.3175 H 42.91049 53.31692 Z M 32.9274,42.570575 v -1.98437 h 1.98437 1.98438 v 1.98437 1.98438 H 34.91177 32.9274 Z m 5.29166,0 v -1.98437 h 1.98438 1.98437 v 1.98437 1.98438 h -1.98437 -1.98438 z m 5.29167,0 v -1.98437 h 1.98438 1.98437 v 1.98437 1.98438 h -1.98437 -1.98438 z m 5.29167,0 v -1.98437 h 1.98437 1.98438 v 1.98437 1.98438 H 50.78677 48.8024 Z m -15.75996,-3.38913 -0.14228,-0.37077 0.0798,-1.69192 0.0798,-1.69193 h 1.85208 1.85209 v 1.98438 1.98437 l -1.78958,0.0783 -1.78957,0.0783 z m 5.29166,0 -0.14227,-0.37077 0.0798,-1.69192 0.0798,-1.69193 h 1.85208 1.85208 v 1.98438 1.98437 l -1.78957,0.0783 -1.78957,0.0783 z m 5.23143,-1.69228 0.0775,-2.06234 1.30538,-0.0826 1.30539,-0.0826 0.62428,0.15669 0.62427,0.15668 -0.0776,1.91032 -0.0776,1.91032 -1.92957,0.078 -1.92957,0.078 z m 5.29167,0 0.0775,-2.06234 h 1.85208 1.85209 v 1.98438 1.98437 l -1.92958,0.078 -1.92957,0.078 z m -15.81476,-3.59939 -0.14228,-0.37077 0.0798,-1.69192 0.0798,-1.69192 h 1.85208 1.85209 v 1.98437 1.98438 l -1.78958,0.0783 -1.78957,0.0783 z m 5.29166,0 -0.14227,-0.37077 0.0798,-1.69192 0.0798,-1.69192 h 1.85208 1.85208 v 1.98437 1.98438 l -1.78957,0.0783 -1.78957,0.0783 z m 5.23143,-1.69227 0.0775,-2.06234 h 1.85209 1.85208 v 1.98437 1.98438 l -1.92957,0.078 -1.92957,0.078 z m 5.29167,0 0.0775,-2.06234 h 1.85208 1.85209 v 1.98437 1.98438 l -1.92958,0.078 -1.92957,0.078 z m -34.05376,12.07937 -3.96875,-0.19471 -2.645829,-0.43558 -2.64584,-0.43557 -1.53496,-0.39714 -1.53496,-0.39713 -0.91244,-0.43511 -0.91243002,-0.43511 0.004,-1.07547 0.004,-1.07548 0.39987992,-1.69645 0.3998801,-1.69646 0.79062,-1.65659 0.79062,-1.6566 1.16118,-1.19476 1.16117,-1.19476 1.85495,-0.93414 1.8549495,-0.93413 2.2954195,-0.9502 2.29543,-0.95019 1.43084,1.35323 1.43084,1.35323 1.47145,0.67365 1.47146,0.67365 2.16726,-0.0953 2.16727,-0.0954 1.23305,-0.60473 1.23306,-0.60474 1.21434,-1.13085 1.21434,-1.13085 v 8.64339 8.64339 l -2.81928,0.1725 -2.81928,0.1725 -2.14166,-0.0417 -2.14165,-0.0417 z m 5.02708,-15.31342 -0.79375,-0.21663 -0.72557,-0.2907 -0.72558,-0.2907 -1.2281,-1.1318 -1.22811,-1.1318 -0.89225,-1.83309 -0.89226,-1.83308 -0.37713,-0.41673 -0.37714,-0.41674 -0.67695,-1.45434 -0.67695,-1.45435 -9.5e-4,-1.19063 -9.6e-4,-1.19062 0.39525,-0.75785 0.39524,-0.75785 v -0.33293 -0.33293 l 1.19865,-1.10487 1.19864,-1.10487 1.16464,-0.49923 1.16464,-0.49922 2.15917,-0.31571 2.15916,-0.31571 1.69541,0.1737 1.69542,0.1737 1.54744,0.48162 1.54745,0.48162 1.22795,0.84485 1.22795,0.84485 0.66403,1.40365 0.66404,1.40366 -0.006,1.42967 -0.006,1.42968 -0.51118,1.12616 -0.51117,1.12616 -0.65482,0.85851 -0.65481,0.85851 -0.53961,1.25884 -0.5396,1.25885 -1.26516,1.36034 -1.26516,1.36034 -1.05833,0.47195 -1.05833,0.47195 -1.32292,0.1352 -1.32292,0.1352 z m 14.43897,-2.77394 -0.31021,-0.37378 0.0794,-1.64923 0.0794,-1.64924 0.44248,-0.27778 0.44247,-0.27778 0.682,0.31074 0.68201,0.31075 v 1.67254 1.67255 l -0.3175,0.3175 -0.3175,0.3175 H 35.1559 34.57975 Z m 15.34583,0 -0.31021,-0.37378 0.0794,-1.64923 0.0794,-1.64924 0.44247,-0.27778 0.44247,-0.27778 0.68201,0.31074 0.682,0.31075 v 1.67254 1.67255 l -0.3175,0.3175 -0.3175,0.3175 h -0.57614 -0.57615 z m -38.07255,-13.70836 -0.31121,-0.3112 V 8.6840654 5.198185 l 0.1657,-0.828506 0.16571,-0.828503 1.08986,-0.801498 1.08987,-0.801498 1.721,-0.554815 1.72099,-0.55481592 3.175,-0.124936 3.175,-0.124936 1.45521,0.271178 1.45521,0.27117692 1.52353,0.570121 1.52354,0.570121 0.92386,0.87131 0.92386,0.87131 v 4.252621 4.25262 l -0.26798,0.16562 -0.26798,0.16562 -1.10009,-0.94164 -1.10009,-0.94163 -1.38459,-0.51804 -1.38458,-0.5180396 -2.27443,-0.30267 -2.27443,-0.30267 -2.24039,0.29814 -2.24039,0.29814 -1.13305,0.3986496 -1.13304,0.39866 -1.05834,0.82759 -1.05833,0.8276 -0.28411,0.21395 -0.28411,0.21395 z m 12.30624,-5.3268 0.8763,-0.95621 -9.9e-4,-1.12837 L 24.72334,3.941411 24.18936,3.065594 23.65539,2.189777 22.74364,1.808823 21.83189,1.427869 H 21.1488 20.4657 l -0.79231,0.409721 -0.79231,0.40972 -0.51648,0.84705 -0.51647,0.847051 -9.9e-4,0.736104 -9.9e-4,0.7361 0.38095,0.91175 0.38095,0.91175 0.87582,0.54969 0.87582,0.54969 1.3065,-0.11296 1.30651,-0.11296 z m -2.91055,0.45264 -0.1819,-0.1819 V 6.543145 5.661205 H 20.07771 19.39886 L 18.87,5.378165 18.34115,5.095135 18.65521,4.716705 18.96927,4.338286 h 0.89365 0.89364 V 3.279953 2.221619 h 0.52917 0.52917 v 1.058334 1.058333 h 1.03002 1.03003 l 0.15075,0.392839 0.15074,0.39284 -0.50192,0.26862 -0.50192,0.26862 h -0.66288 -0.66288 l -0.0821,0.97173 -0.0821,0.97174 -0.28112,0.0921 -0.28112,0.0921 z"
       id="path2" /></g></svg>
